<?xml version="1.0" encoding="UTF-8"?>
<!DOCTYPE svg PUBLIC "-//W3C//DTD SVG 1.1//EN" "http://www.w3.org/Graphics/SVG/1.1/DTD/svg11.dtd">
<svg xmlns="http://www.w3.org/2000/svg" version="1.1" width="511px" height="292px" style="shape-rendering:geometricPrecision; text-rendering:geometricPrecision; image-rendering:optimizeQuality; fill-rule:evenodd; clip-rule:evenodd" xmlns:xlink="http://www.w3.org/1999/xlink">
<g><path style="opacity:1" fill="#fefefe" d="M -0.5,-0.5 C 169.833,-0.5 340.167,-0.5 510.5,-0.5C 510.5,96.8333 510.5,194.167 510.5,291.5C 340.167,291.5 169.833,291.5 -0.5,291.5C -0.5,194.167 -0.5,96.8333 -0.5,-0.5 Z"/></g>
<g><path style="opacity:1" fill="#f5cea6" d="M 341.5,49.5 C 348.989,48.3443 356.655,48.1777 364.5,49C 368.736,49.3349 372.736,50.1682 376.5,51.5C 364.903,49.8969 353.236,49.2302 341.5,49.5 Z"/></g>
<g><path style="opacity:1" fill="#ed993f" d="M 341.5,49.5 C 353.236,49.2302 364.903,49.8969 376.5,51.5C 389.055,54.9451 400.722,60.2784 411.5,67.5C 412.585,69.5869 414.251,70.9202 416.5,71.5C 432.88,85.2895 443.546,102.623 448.5,123.5C 449.887,130.424 450.554,137.424 450.5,144.5C 445.381,145.103 440.715,144.436 436.5,142.5C 436.833,141.833 437.167,141.167 437.5,140.5C 439.942,138.879 441.275,136.546 441.5,133.5C 442.503,128.452 442.003,123.452 440,118.5C 437.861,114.559 436.028,110.559 434.5,106.5C 434.573,104.973 433.906,103.973 432.5,103.5C 423.797,87.1389 411.131,74.8056 394.5,66.5C 392.967,64.7549 390.967,63.7549 388.5,63.5C 383.5,62.1667 378.5,60.8333 373.5,59.5C 372.737,58.7321 371.737,58.2321 370.5,58C 358.836,56.0552 347.169,56.0552 335.5,58C 332.543,58.2794 329.877,59.1127 327.5,60.5C 326.609,61.1098 325.609,61.4431 324.5,61.5C 320.064,62.4144 316.064,64.081 312.5,66.5C 305.668,69.6564 299.335,73.6564 293.5,78.5C 289.822,81.6786 286.322,85.0119 283,88.5C 280.25,91.4237 278.084,94.757 276.5,98.5C 275.094,98.9731 274.427,99.9731 274.5,101.5C 273.13,103.25 272.13,105.25 271.5,107.5C 269.755,109.033 268.755,111.033 268.5,113.5C 266.76,118.956 265.093,124.456 263.5,130C 273.728,152.395 290.061,168.562 312.5,178.5C 312.973,179.906 313.973,180.573 315.5,180.5C 320.11,182.037 324.777,183.37 329.5,184.5C 331.515,185.924 333.848,186.59 336.5,186.5C 349.192,187.588 361.858,187.254 374.5,185.5C 376.898,185.741 378.898,185.074 380.5,183.5C 383.833,182.5 387.167,181.5 390.5,180.5C 392.403,180.204 394.07,179.537 395.5,178.5C 396.167,177.833 396.833,177.167 397.5,176.5C 403.155,180.823 408.488,185.49 413.5,190.5C 422.713,190.844 431.713,191.844 440.5,193.5C 431.239,210.76 418.239,224.427 401.5,234.5C 397.17,236.499 392.837,238.499 388.5,240.5C 384.975,241.21 381.642,242.21 378.5,243.5C 375.848,243.41 373.515,244.076 371.5,245.5C 359.17,246.808 346.836,246.808 334.5,245.5C 332.485,244.076 330.152,243.41 327.5,243.5C 291.899,232.566 268.566,209.233 257.5,173.5C 257.225,168.223 256.225,163.223 254.5,158.5C 254.137,148.744 254.804,139.077 256.5,129.5C 256.674,127.139 257.007,124.806 257.5,122.5C 258.117,122.389 258.617,122.056 259,121.5C 259.44,119.134 259.94,116.801 260.5,114.5C 261.393,111.32 262.393,108.154 263.5,105C 265.947,100.068 268.947,95.5675 272.5,91.5C 274.326,89.8525 275.66,87.8525 276.5,85.5C 284.311,75.6865 293.644,67.6865 304.5,61.5C 306.967,61.2451 308.967,60.2451 310.5,58.5C 320.277,53.6107 330.61,50.6107 341.5,49.5 Z"/></g>
<g><path style="opacity:1" fill="#76b04b" d="M 373.5,59.5 C 358.12,57.9683 342.786,58.3016 327.5,60.5C 329.877,59.1127 332.543,58.2794 335.5,58C 347.169,56.0552 358.836,56.0552 370.5,58C 371.737,58.2321 372.737,58.7321 373.5,59.5 Z"/></g>
<g><path style="opacity:1" fill="#4eb850" d="M 373.5,59.5 C 378.5,60.8333 383.5,62.1667 388.5,63.5C 390.033,65.2451 392.033,66.2451 394.5,66.5C 411.131,74.8056 423.797,87.1389 432.5,103.5C 432.427,105.027 433.094,106.027 434.5,106.5C 436.028,110.559 437.861,114.559 440,118.5C 442.003,123.452 442.503,128.452 441.5,133.5C 439.801,135.566 438.468,137.9 437.5,140.5C 437.167,141.167 436.833,141.833 436.5,142.5C 435.711,142.783 435.044,143.283 434.5,144C 427.833,144.667 421.167,144.667 414.5,144C 407.938,137.27 401.271,130.77 394.5,124.5C 362.448,124.152 330.448,123.152 298.5,121.5C 297.407,119.651 296.074,117.984 294.5,116.5C 292.544,114.452 290.044,113.452 287,113.5C 284.091,113.285 281.924,114.285 280.5,116.5C 277.856,117.144 276.189,118.811 275.5,121.5C 274.357,124.976 274.19,128.642 275,132.5C 275.383,133.056 275.883,133.389 276.5,133.5C 278.713,137.273 282.046,138.94 286.5,138.5C 291.863,138.95 295.863,136.95 298.5,132.5C 329.61,130.519 360.943,129.853 392.5,130.5C 399.167,137.167 405.833,143.833 412.5,150.5C 417.833,151.167 423.167,151.833 428.5,152.5C 425.833,155.5 423.167,158.5 420.5,161.5C 418.77,162.026 417.436,163.026 416.5,164.5C 415.833,164.5 415.167,164.5 414.5,164.5C 408.036,157.535 401.369,150.702 394.5,144C 375.824,143.833 357.158,143.333 338.5,142.5C 336.949,138.221 333.949,135.555 329.5,134.5C 328.551,133.848 327.385,133.514 326,133.5C 323.992,133.307 322.492,133.974 321.5,135.5C 318.189,136.811 315.855,139.145 314.5,142.5C 313.135,145.959 313.469,149.292 315.5,152.5C 317.565,156.627 321.065,158.627 326,158.5C 332.191,158.782 336.358,156.115 338.5,150.5C 356.423,149.514 374.423,149.181 392.5,149.5C 392.369,150.239 392.536,150.906 393,151.5C 398.84,157.2 404.673,162.867 410.5,168.5C 410.5,168.833 410.5,169.167 410.5,169.5C 408.483,170.529 406.483,171.529 404.5,172.5C 400.765,170.275 397.432,167.442 394.5,164C 388.843,163.501 383.176,163.334 377.5,163.5C 375.341,155.2 370.008,152.033 361.5,154C 352.419,159.831 351.086,167.165 357.5,176C 366.464,180.677 373.464,178.677 378.5,170C 383.167,169.333 387.833,169.333 392.5,170C 394.79,171.777 396.457,173.944 397.5,176.5C 396.833,177.167 396.167,177.833 395.5,178.5C 393.302,178.12 391.635,178.787 390.5,180.5C 387.167,181.5 383.833,182.5 380.5,183.5C 378.102,183.259 376.102,183.926 374.5,185.5C 361.858,187.254 349.192,187.588 336.5,186.5C 334.485,185.076 332.152,184.41 329.5,184.5C 324.777,183.37 320.11,182.037 315.5,180.5C 315.027,179.094 314.027,178.427 312.5,178.5C 290.061,168.562 273.728,152.395 263.5,130C 265.093,124.456 266.76,118.956 268.5,113.5C 270.245,111.967 271.245,109.967 271.5,107.5C 272.13,105.25 273.13,103.25 274.5,101.5C 275.906,101.027 276.573,100.027 276.5,98.5C 278.084,94.757 280.25,91.4237 283,88.5C 286.322,85.0119 289.822,81.6786 293.5,78.5C 299.335,73.6564 305.668,69.6564 312.5,66.5C 316.936,65.5856 320.936,63.919 324.5,61.5C 325.609,61.4431 326.609,61.1098 327.5,60.5C 342.786,58.3016 358.12,57.9683 373.5,59.5 Z"/></g>
<g><path style="opacity:1" fill="#f7cb9e" d="M 310.5,58.5 C 308.967,60.2451 306.967,61.2451 304.5,61.5C 306.033,59.7549 308.033,58.7549 310.5,58.5 Z"/></g>
<g><path style="opacity:1" fill="#7baf4a" d="M 324.5,61.5 C 320.936,63.919 316.936,65.5856 312.5,66.5C 316.064,64.081 320.064,62.4144 324.5,61.5 Z"/></g>
<g><path style="opacity:1" fill="#b8a343" d="M 388.5,63.5 C 390.967,63.7549 392.967,64.7549 394.5,66.5C 392.033,66.2451 390.033,65.2451 388.5,63.5 Z"/></g>
<g><path style="opacity:1" fill="#f9d7b4" d="M 411.5,67.5 C 413.749,68.0798 415.415,69.4131 416.5,71.5C 414.251,70.9202 412.585,69.5869 411.5,67.5 Z"/></g>
<g><path style="opacity:1" fill="#f5bc83" d="M 276.5,85.5 C 275.66,87.8525 274.326,89.8525 272.5,91.5C 272.845,88.8021 274.178,86.8021 276.5,85.5 Z"/></g>
<g><path style="opacity:1" fill="#a6a645" d="M 276.5,98.5 C 276.573,100.027 275.906,101.027 274.5,101.5C 274.427,99.9731 275.094,98.9731 276.5,98.5 Z"/></g>
<g><path style="opacity:1" fill="#a2a645" d="M 432.5,103.5 C 433.906,103.973 434.573,104.973 434.5,106.5C 433.094,106.027 432.427,105.027 432.5,103.5 Z"/></g>
<g><path style="opacity:1" fill="#a9a545" d="M 271.5,107.5 C 271.245,109.967 270.245,111.967 268.5,113.5C 268.755,111.033 269.755,109.033 271.5,107.5 Z"/></g>
<g><path style="opacity:1" fill="#92bf61" d="M 294.5,116.5 C 289.795,113.952 285.129,113.952 280.5,116.5C 281.924,114.285 284.091,113.285 287,113.5C 290.044,113.452 292.544,114.452 294.5,116.5 Z"/></g>
<g><path style="opacity:1" fill="#f4c97a" d="M 294.5,116.5 C 296.074,117.984 297.407,119.651 298.5,121.5C 298.5,122.5 298.5,123.5 298.5,124.5C 330.5,124.5 362.5,124.5 394.5,124.5C 401.271,130.77 407.938,137.27 414.5,144C 421.167,144.667 427.833,144.667 434.5,144C 435.044,143.283 435.711,142.783 436.5,142.5C 440.715,144.436 445.381,145.103 450.5,144.5C 450.554,137.424 449.887,130.424 448.5,123.5C 450.011,125.476 450.844,127.809 451,130.5C 451.373,136.179 451.873,141.845 452.5,147.5C 452.489,149.045 452.156,150.378 451.5,151.5C 444.5,150.167 437.5,150.167 430.5,151.5C 430.167,151.5 429.833,151.5 429.5,151.5C 424.025,150.511 418.358,150.178 412.5,150.5C 405.833,143.833 399.167,137.167 392.5,130.5C 361.338,129.502 330.004,129.168 298.5,129.5C 298.5,130.5 298.5,131.5 298.5,132.5C 295.863,136.95 291.863,138.95 286.5,138.5C 282.046,138.94 278.713,137.273 276.5,133.5C 275.64,129.566 275.307,125.566 275.5,121.5C 276.189,118.811 277.856,117.144 280.5,116.5C 285.129,113.952 289.795,113.952 294.5,116.5 Z"/></g>
<g><path style="opacity:1" fill="#96a7b3" d="M 83.5,120.5 C 75.7572,119.87 68.4238,120.537 61.5,122.5C 60.596,121.791 60.2627,120.791 60.5,119.5C 68.3516,119.175 76.0182,119.508 83.5,120.5 Z"/></g>
<g><path style="opacity:1" fill="#153752" d="M 236.5,120.5 C 236.5,124.833 236.5,129.167 236.5,133.5C 235.5,133.5 234.5,133.5 233.5,133.5C 233.324,130.273 232.657,127.273 231.5,124.5C 229.777,123.2 227.61,122.533 225,122.5C 220.304,121.79 216.47,123.124 213.5,126.5C 212.5,126.833 211.833,127.5 211.5,128.5C 209.025,129.687 208.025,131.687 208.5,134.5C 207.348,139.985 207.182,145.651 208,151.5C 208.099,153.653 208.933,155.319 210.5,156.5C 211.862,159.862 214.195,162.195 217.5,163.5C 221.634,164.485 225.968,164.818 230.5,164.5C 230.821,158.974 230.488,153.64 229.5,148.5C 227.435,148.483 225.435,148.15 223.5,147.5C 223.167,147.5 222.833,147.5 222.5,147.5C 228.412,145.544 234.745,144.877 241.5,145.5C 241.213,147.121 240.213,148.121 238.5,148.5C 237.812,154.052 237.146,159.552 236.5,165C 227.864,168.012 219.197,168.178 210.5,165.5C 208.985,163.918 207.319,162.584 205.5,161.5C 205.262,159.596 204.262,158.262 202.5,157.5C 202.107,155.716 201.441,154.05 200.5,152.5C 200.336,145.798 200.669,139.131 201.5,132.5C 202.11,131.609 202.443,130.609 202.5,129.5C 204.833,127.833 206.833,125.833 208.5,123.5C 211.197,121.559 214.197,120.059 217.5,119C 219.667,118.833 221.833,118.667 224,118.5C 228.201,119.12 232.368,119.787 236.5,120.5 Z"/></g>
<g><path style="opacity:1" fill="#143651" d="M 83.5,120.5 C 95.8547,122.535 100.021,129.535 96,141.5C 94.6032,143.07 93.1032,144.404 91.5,145.5C 89.9731,145.427 88.9731,146.094 88.5,147.5C 88.1667,147.5 87.8333,147.5 87.5,147.5C 83.2022,148.2 78.8689,148.533 74.5,148.5C 74.1805,153.363 74.5139,158.03 75.5,162.5C 77.0261,164.13 79.0261,164.963 81.5,165C 74.8417,165.5 68.175,165.666 61.5,165.5C 62.1837,163.815 63.517,162.815 65.5,162.5C 66.4991,149.517 66.8325,136.517 66.5,123.5C 64.7839,123.371 63.1172,123.038 61.5,122.5C 68.4238,120.537 75.7572,119.87 83.5,120.5 Z"/></g>
<g><path style="opacity:1" fill="#f4bb80" d="M 260.5,114.5 C 259.94,116.801 259.44,119.134 259,121.5C 258.617,122.056 258.117,122.389 257.5,122.5C 258.06,120.199 258.56,117.866 259,115.5C 259.383,114.944 259.883,114.611 260.5,114.5 Z"/></g>
<g><path style="opacity:1" fill="#d4dbe0" d="M 236.5,120.5 C 238.436,124.715 239.103,129.381 238.5,134.5C 236.585,134.784 234.919,134.451 233.5,133.5C 234.5,133.5 235.5,133.5 236.5,133.5C 236.5,129.167 236.5,124.833 236.5,120.5 Z"/></g>
<g><path style="opacity:1" fill="#b6c36a" d="M 298.5,121.5 C 330.448,123.152 362.448,124.152 394.5,124.5C 362.5,124.5 330.5,124.5 298.5,124.5C 298.5,123.5 298.5,122.5 298.5,121.5 Z"/></g>
<g><path style="opacity:1" fill="#5f798a" d="M 82.5,124.5 C 79.8333,124.5 77.1667,124.5 74.5,124.5C 74.5,131.167 74.5,137.833 74.5,144.5C 78.7047,144.809 82.7047,144.143 86.5,142.5C 86.4226,143.75 85.756,144.583 84.5,145C 80.8484,145.499 77.1817,145.665 73.5,145.5C 73.5,138.167 73.5,130.833 73.5,123.5C 76.7131,123.19 79.7131,123.523 82.5,124.5 Z"/></g>
<g><path style="opacity:1" fill="#f5f6f7" d="M 82.5,124.5 C 83.6715,125.345 85.0048,126.011 86.5,126.5C 88.2783,130.565 88.9449,134.899 88.5,139.5C 87.5987,140.29 86.9321,141.29 86.5,142.5C 82.7047,144.143 78.7047,144.809 74.5,144.5C 74.5,137.833 74.5,131.167 74.5,124.5C 77.1667,124.5 79.8333,124.5 82.5,124.5 Z"/></g>
<g><path style="opacity:1" fill="#a3b2bc" d="M 231.5,124.5 C 225.214,122.829 219.214,123.495 213.5,126.5C 216.47,123.124 220.304,121.79 225,122.5C 227.61,122.533 229.777,123.2 231.5,124.5 Z"/></g>
<g><path style="opacity:1" fill="#a7c267" d="M 275.5,121.5 C 275.307,125.566 275.64,129.566 276.5,133.5C 275.883,133.389 275.383,133.056 275,132.5C 274.19,128.642 274.357,124.976 275.5,121.5 Z"/></g>
<g><path style="opacity:1" fill="#647c8e" d="M 208.5,123.5 C 206.833,125.833 204.833,127.833 202.5,129.5C 203.5,126.5 205.5,124.5 208.5,123.5 Z"/></g>
<g><path style="opacity:1" fill="#95a5b1" d="M 86.5,126.5 C 87.4584,126.953 88.2917,127.619 89,128.5C 89.8099,132.358 89.6433,136.024 88.5,139.5C 88.9449,134.899 88.2783,130.565 86.5,126.5 Z"/></g>
<g><path style="opacity:1" fill="#9ac064" d="M 392.5,130.5 C 360.943,129.853 329.61,130.519 298.5,132.5C 298.5,131.5 298.5,130.5 298.5,129.5C 330.004,129.168 361.338,129.502 392.5,130.5 Z"/></g>
<g><path style="opacity:1" fill="#889ba8" d="M 211.5,128.5 C 210.492,130.544 209.492,132.544 208.5,134.5C 208.025,131.687 209.025,129.687 211.5,128.5 Z"/></g>
<g><path style="opacity:1" fill="#0f344f" d="M 120.5,133.5 C 123.408,134.287 126.074,135.62 128.5,137.5C 129.042,145.986 129.709,154.32 130.5,162.5C 131.833,162.5 133.167,162.5 134.5,162.5C 134.719,163.675 134.386,164.675 133.5,165.5C 131.568,166.366 129.568,167.033 127.5,167.5C 125.347,167.439 124.014,166.439 123.5,164.5C 122.833,163.833 122.167,163.167 121.5,162.5C 122.482,159.038 122.815,155.371 122.5,151.5C 120.143,151.337 117.81,151.503 115.5,152C 113.68,152.2 112.347,153.034 111.5,154.5C 110.007,155.312 109.34,156.645 109.5,158.5C 109.52,159.726 109.853,160.726 110.5,161.5C 110.833,162.167 111.167,162.833 111.5,163.5C 114.159,163.917 116.492,164.917 118.5,166.5C 114.869,167.412 111.203,167.579 107.5,167C 105.816,165.791 104.483,164.291 103.5,162.5C 103.113,158.556 103.78,154.889 105.5,151.5C 107.027,151.573 108.027,150.906 108.5,149.5C 113.193,149.46 117.859,149.127 122.5,148.5C 122.81,145.287 122.477,142.287 121.5,139.5C 120.852,137.414 119.352,136.414 117,136.5C 113.533,137.295 110.533,138.961 108,141.5C 106.699,141.361 105.866,140.695 105.5,139.5C 105.5,138.167 105.5,136.833 105.5,135.5C 110.391,134.097 115.391,133.43 120.5,133.5 Z"/></g>
<g><path style="opacity:1" fill="#143751" d="M 152.5,146.5 C 152.755,148.967 153.755,150.967 155.5,152.5C 155.557,153.609 155.89,154.609 156.5,155.5C 157.189,156.774 158.023,156.774 159,155.5C 159.608,153.846 160.108,152.179 160.5,150.5C 161.403,145.9 163.07,141.566 165.5,137.5C 164.15,136.05 162.484,135.383 160.5,135.5C 160.5,134.5 160.5,133.5 160.5,132.5C 165.167,132.5 169.833,132.5 174.5,132.5C 174.5,133.5 174.5,134.5 174.5,135.5C 172.5,135.833 170.5,136.167 168.5,136.5C 167.013,141.627 165.347,146.627 163.5,151.5C 160.932,157.658 158.598,163.991 156.5,170.5C 154.755,172.033 153.755,174.033 153.5,176.5C 153.5,176.833 153.5,177.167 153.5,177.5C 152.463,178.93 151.796,180.597 151.5,182.5C 151.5,183.167 151.5,183.833 151.5,184.5C 149.958,185.301 148.292,185.634 146.5,185.5C 145.833,185.5 145.5,185.167 145.5,184.5C 145.704,182.315 146.37,180.315 147.5,178.5C 149.931,176.954 151.264,174.621 151.5,171.5C 151.833,170.833 152.167,170.167 152.5,169.5C 153.586,169.38 154.253,168.713 154.5,167.5C 154.253,166.287 153.586,165.62 152.5,165.5C 152.029,163.421 151.363,161.421 150.5,159.5C 150.245,157.033 149.245,155.033 147.5,153.5C 146.833,151.833 146.167,150.167 145.5,148.5C 145.245,146.033 144.245,144.033 142.5,142.5C 142.49,137.823 140.156,135.49 135.5,135.5C 135.5,134.5 135.5,133.5 135.5,132.5C 141.167,132.5 146.833,132.5 152.5,132.5C 152.5,133.5 152.5,134.5 152.5,135.5C 151.167,135.5 149.833,135.5 148.5,135.5C 149.548,139.264 150.881,142.931 152.5,146.5 Z"/></g>
<g><path style="opacity:1" fill="#a9ddab" d="M 329.5,134.5 C 326.763,134.401 324.096,134.735 321.5,135.5C 322.492,133.974 323.992,133.307 326,133.5C 327.385,133.514 328.551,133.848 329.5,134.5 Z"/></g>
<g><path style="opacity:1" fill="#4c687c" d="M 120.5,133.5 C 115.391,133.43 110.391,134.097 105.5,135.5C 105.5,136.833 105.5,138.167 105.5,139.5C 104.035,137.454 104.368,135.62 106.5,134C 111.289,132.511 115.956,132.344 120.5,133.5 Z"/></g>
<g><path style="opacity:1" fill="#b9a243" d="M 441.5,133.5 C 441.275,136.546 439.942,138.879 437.5,140.5C 438.468,137.9 439.801,135.566 441.5,133.5 Z"/></g>
<g><path style="opacity:1" fill="#637c8d" d="M 201.5,132.5 C 200.669,139.131 200.336,145.798 200.5,152.5C 199.835,149.351 199.502,146.018 199.5,142.5C 199.514,138.761 200.18,135.428 201.5,132.5 Z"/></g>
<g><path style="opacity:1" fill="#bbc6cd" d="M 208.5,134.5 C 208.091,141.964 208.757,149.297 210.5,156.5C 208.933,155.319 208.099,153.653 208,151.5C 207.182,145.651 207.348,139.985 208.5,134.5 Z"/></g>
<g><path style="opacity:1" fill="#9cacb6" d="M 128.5,137.5 C 129.222,137.918 129.722,138.584 130,139.5C 130.5,147.159 130.666,154.826 130.5,162.5C 129.709,154.32 129.042,145.986 128.5,137.5 Z"/></g>
<g><path style="opacity:1" fill="#96a7b2" d="M 241.5,145.5 C 234.745,144.877 228.412,145.544 222.5,147.5C 221.596,146.791 221.263,145.791 221.5,144.5C 228.354,144.176 235.021,144.509 241.5,145.5 Z"/></g>
<g><path style="opacity:1" fill="#f9dec1" d="M 256.5,129.5 C 254.804,139.077 254.137,148.744 254.5,158.5C 253.172,149.295 253.338,139.962 255,130.5C 255.383,129.944 255.883,129.611 256.5,129.5 Z"/></g>
<g><path style="opacity:1" fill="#a4daa5" d="M 314.5,142.5 C 314.616,145.86 314.949,149.193 315.5,152.5C 313.469,149.292 313.135,145.959 314.5,142.5 Z"/></g>
<g><path style="opacity:1" fill="#8ea0ac" d="M 91.5,145.5 C 91.0269,146.906 90.0269,147.573 88.5,147.5C 88.9731,146.094 89.9731,145.427 91.5,145.5 Z"/></g>
<g><path style="opacity:1" fill="#708797" d="M 142.5,142.5 C 144.245,144.033 145.245,146.033 145.5,148.5C 143.755,146.967 142.755,144.967 142.5,142.5 Z"/></g>
<g><path style="opacity:1" fill="#587285" d="M 121.5,139.5 C 122.477,142.287 122.81,145.287 122.5,148.5C 117.859,149.127 113.193,149.46 108.5,149.5C 112.545,147.823 116.878,147.156 121.5,147.5C 121.5,144.833 121.5,142.167 121.5,139.5 Z"/></g>
<g><path style="opacity:1" fill="#9faeb9" d="M 152.5,146.5 C 154.539,147.911 155.539,149.911 155.5,152.5C 153.755,150.967 152.755,148.967 152.5,146.5 Z"/></g>
<g><path style="opacity:1" fill="#cae9cb" d="M 392.5,149.5 C 374.423,149.181 356.423,149.514 338.5,150.5C 347.141,149.168 356.141,148.502 365.5,148.5C 374.673,148.5 383.673,148.834 392.5,149.5 Z"/></g>
<g><path style="opacity:1" fill="#a7b5bf" d="M 87.5,147.5 C 83.8171,149.25 79.8171,149.917 75.5,149.5C 75.5,153.833 75.5,158.167 75.5,162.5C 74.5139,158.03 74.1805,153.363 74.5,148.5C 78.8689,148.533 83.2022,148.2 87.5,147.5 Z"/></g>
<g><path style="opacity:1" fill="#a5b3bd" d="M 223.5,147.5 C 225.435,148.15 227.435,148.483 229.5,148.5C 229.821,153.695 229.487,158.695 228.5,163.5C 228.5,158.833 228.5,154.167 228.5,149.5C 226.302,149.88 224.635,149.213 223.5,147.5 Z"/></g>
<g><path style="opacity:1" fill="#446276" d="M 229.5,148.5 C 230.488,153.64 230.821,158.974 230.5,164.5C 225.968,164.818 221.634,164.485 217.5,163.5C 221.167,163.5 224.833,163.5 228.5,163.5C 229.487,158.695 229.821,153.695 229.5,148.5 Z"/></g>
<g><path style="opacity:1" fill="#6e8595" d="M 108.5,149.5 C 108.027,150.906 107.027,151.573 105.5,151.5C 105.973,150.094 106.973,149.427 108.5,149.5 Z"/></g>
<g><path style="opacity:1" fill="#32546a" d="M 178.5,146.5 C 178.5,147.833 178.5,149.167 178.5,150.5C 182.5,150.5 186.5,150.5 190.5,150.5C 190.5,149.167 190.5,147.833 190.5,146.5C 191.451,147.919 191.784,149.585 191.5,151.5C 186.833,151.5 182.167,151.5 177.5,151.5C 177.216,149.585 177.549,147.919 178.5,146.5 Z"/></g>
<g><path style="opacity:1" fill="#002946" d="M 178.5,146.5 C 182.5,146.5 186.5,146.5 190.5,146.5C 190.5,147.833 190.5,149.167 190.5,150.5C 186.5,150.5 182.5,150.5 178.5,150.5C 178.5,149.167 178.5,147.833 178.5,146.5 Z"/></g>
<g><path style="opacity:1" fill="#92bd5f" d="M 412.5,150.5 C 418.358,150.178 424.025,150.511 429.5,151.5C 429.5,152.167 429.167,152.5 428.5,152.5C 423.167,151.833 417.833,151.167 412.5,150.5 Z"/></g>
<g><path style="opacity:1" fill="#eef0f2" d="M 121.5,162.5 C 118.236,163.324 114.902,163.658 111.5,163.5C 111.167,162.833 110.833,162.167 110.5,161.5C 110.448,159.097 110.781,156.764 111.5,154.5C 112.347,153.034 113.68,152.2 115.5,152C 117.81,151.503 120.143,151.337 122.5,151.5C 122.815,155.371 122.482,159.038 121.5,162.5 Z"/></g>
<g><path style="opacity:1" fill="#ec983e" d="M 429.5,151.5 C 429.833,151.5 430.167,151.5 430.5,151.5C 437.167,151.5 443.833,151.5 450.5,151.5C 450.759,155.24 450.426,158.906 449.5,162.5C 444.667,162.833 439.833,163.167 435,163.5C 429.784,163.494 424.951,162.827 420.5,161.5C 423.167,158.5 425.833,155.5 428.5,152.5C 429.167,152.5 429.5,152.167 429.5,151.5 Z"/></g>
<g><path style="opacity:1" fill="#92d190" d="M 404.5,172.5 C 407.228,176.737 410.561,180.571 414.5,184C 424.494,184.5 434.494,184.666 444.5,184.5C 444.029,186.579 443.363,188.579 442.5,190.5C 432.833,190.5 423.167,190.5 413.5,190.5C 408.488,185.49 403.155,180.823 397.5,176.5C 396.457,173.944 394.79,171.777 392.5,170C 387.833,169.333 383.167,169.333 378.5,170C 373.464,178.677 366.464,180.677 357.5,176C 351.086,167.165 352.419,159.831 361.5,154C 370.008,152.033 375.341,155.2 377.5,163.5C 383.176,163.334 388.843,163.501 394.5,164C 397.432,167.442 400.765,170.275 404.5,172.5 Z"/></g>
<g><path style="opacity:1" fill="#8396a4" d="M 160.5,150.5 C 160.108,152.179 159.608,153.846 159,155.5C 158.023,156.774 157.189,156.774 156.5,155.5C 157.833,153.833 159.167,152.167 160.5,150.5 Z"/></g>
<g><path style="opacity:1" fill="#8397a5" d="M 111.5,154.5 C 110.781,156.764 110.448,159.097 110.5,161.5C 109.853,160.726 109.52,159.726 109.5,158.5C 109.34,156.645 110.007,155.312 111.5,154.5 Z"/></g>
<g><path style="opacity:1" fill="#617a8b" d="M 147.5,153.5 C 149.245,155.033 150.245,157.033 150.5,159.5C 148.755,157.967 147.755,155.967 147.5,153.5 Z"/></g>
<g><path style="opacity:1" fill="#405d73" d="M 105.5,151.5 C 103.78,154.889 103.113,158.556 103.5,162.5C 102.883,162.389 102.383,162.056 102,161.5C 100.755,157.235 101.922,153.902 105.5,151.5 Z"/></g>
<g><path style="opacity:1" fill="#889ba8" d="M 202.5,157.5 C 204.262,158.262 205.262,159.596 205.5,161.5C 203.738,160.738 202.738,159.404 202.5,157.5 Z"/></g>
<g><path style="opacity:1" fill="#466378" d="M 121.5,162.5 C 122.167,163.167 122.833,163.833 123.5,164.5C 121.486,164.392 119.82,165.058 118.5,166.5C 116.492,164.917 114.159,163.917 111.5,163.5C 114.902,163.658 118.236,163.324 121.5,162.5 Z"/></g>
<g><path style="opacity:1" fill="#bdc7ce" d="M 163.5,151.5 C 163.665,154.85 163.498,158.183 163,161.5C 160.299,164.284 158.132,167.284 156.5,170.5C 158.598,163.991 160.932,157.658 163.5,151.5 Z"/></g>
<g><path style="opacity:1" fill="#eea95a" d="M 430.5,151.5 C 437.5,150.167 444.5,150.167 451.5,151.5C 451.5,155.167 451.5,158.833 451.5,162.5C 440.086,164.446 428.419,165.112 416.5,164.5C 417.436,163.026 418.77,162.026 420.5,161.5C 424.951,162.827 429.784,163.494 435,163.5C 439.833,163.167 444.667,162.833 449.5,162.5C 450.426,158.906 450.759,155.24 450.5,151.5C 443.833,151.5 437.167,151.5 430.5,151.5 Z"/></g>
<g><path style="opacity:1" fill="#f6d3ad" d="M 451.5,162.5 C 451.657,163.873 451.49,165.207 451,166.5C 438.735,165.842 426.569,165.176 414.5,164.5C 415.167,164.5 415.833,164.5 416.5,164.5C 428.419,165.112 440.086,164.446 451.5,162.5 Z"/></g>
<g><path style="opacity:1" fill="#3e5d73" d="M 75.5,162.5 C 77.861,162.674 80.1944,163.007 82.5,163.5C 82.5,164.5 82.5,165.5 82.5,166.5C 75.3134,166.825 68.3134,166.491 61.5,165.5C 68.175,165.666 74.8417,165.5 81.5,165C 79.0261,164.963 77.0261,164.13 75.5,162.5 Z"/></g>
<g><path style="opacity:1" fill="#4f6a7e" d="M 152.5,165.5 C 153.586,165.62 154.253,166.287 154.5,167.5C 154.253,168.713 153.586,169.38 152.5,169.5C 152.5,168.167 152.5,166.833 152.5,165.5 Z"/></g>
<g><path style="opacity:1" fill="#fbe1c6" d="M 254.5,158.5 C 256.225,163.223 257.225,168.223 257.5,173.5C 256.883,173.389 256.383,173.056 256,172.5C 255.006,167.882 254.506,163.215 254.5,158.5 Z"/></g>
<g><path style="opacity:1" fill="#fae9d6" d="M 410.5,169.5 C 410.5,169.167 410.5,168.833 410.5,168.5C 423.784,169.464 437.117,169.797 450.5,169.5C 450.737,170.791 450.404,171.791 449.5,172.5C 437.545,170.52 425.212,169.854 412.5,170.5C 411.833,170.167 411.167,169.833 410.5,169.5 Z"/></g>
<g><path style="opacity:1" fill="#eb9a41" d="M 410.5,169.5 C 411.167,169.833 411.833,170.167 412.5,170.5C 424.5,171.167 436.5,171.833 448.5,172.5C 448.037,176.847 446.704,180.847 444.5,184.5C 434.494,184.666 424.494,184.5 414.5,184C 410.561,180.571 407.228,176.737 404.5,172.5C 406.483,171.529 408.483,170.529 410.5,169.5 Z"/></g>
<g><path style="opacity:1" fill="#f4c18c" d="M 412.5,170.5 C 425.212,169.854 437.545,170.52 449.5,172.5C 449.167,172.5 448.833,172.5 448.5,172.5C 436.5,171.833 424.5,171.167 412.5,170.5 Z"/></g>
<g><path style="opacity:1" fill="#587285" d="M 156.5,170.5 C 156.245,172.967 155.245,174.967 153.5,176.5C 153.755,174.033 154.755,172.033 156.5,170.5 Z"/></g>
<g><path style="opacity:1" fill="#4f697d" d="M 151.5,171.5 C 151.264,174.621 149.931,176.954 147.5,178.5C 148.079,175.669 149.412,173.336 151.5,171.5 Z"/></g>
<g><path style="opacity:1" fill="#a1a746" d="M 312.5,178.5 C 314.027,178.427 315.027,179.094 315.5,180.5C 313.973,180.573 312.973,179.906 312.5,178.5 Z"/></g>
<g><path style="opacity:1" fill="#a8a645" d="M 395.5,178.5 C 394.07,179.537 392.403,180.204 390.5,180.5C 391.635,178.787 393.302,178.12 395.5,178.5 Z"/></g>
<g><path style="opacity:1" fill="#8195a3" d="M 153.5,177.5 C 153.88,179.698 153.213,181.365 151.5,182.5C 151.796,180.597 152.463,178.93 153.5,177.5 Z"/></g>
<g><path style="opacity:1" fill="#728998" d="M 147.5,178.5 C 146.37,180.315 145.704,182.315 145.5,184.5C 143.984,181.92 144.651,179.92 147.5,178.5 Z"/></g>
<g><path style="opacity:1" fill="#b2a444" d="M 380.5,183.5 C 378.898,185.074 376.898,185.741 374.5,185.5C 376.102,183.926 378.102,183.259 380.5,183.5 Z"/></g>
<g><path style="opacity:1" fill="#738999" d="M 151.5,184.5 C 151.209,185.649 150.376,186.316 149,186.5C 147.93,186.472 147.097,186.139 146.5,185.5C 147.097,186.139 147.93,186.472 149,186.5C 150.376,186.316 151.209,185.649 151.5,184.5 Z"/></g>
<g><path style="opacity:1" fill="#a2a746" d="M 329.5,184.5 C 332.152,184.41 334.485,185.076 336.5,186.5C 333.848,186.59 331.515,185.924 329.5,184.5 Z"/></g>
<g><path style="opacity:1" fill="#dda552" d="M 413.5,190.5 C 423.167,190.5 432.833,190.5 442.5,190.5C 442.068,191.71 441.401,192.71 440.5,193.5C 431.713,191.844 422.713,190.844 413.5,190.5 Z"/></g>
<g><path style="opacity:1" fill="#fbdfc4" d="M 401.5,234.5 C 397.963,238.022 393.63,240.022 388.5,240.5C 392.837,238.499 397.17,236.499 401.5,234.5 Z"/></g>
<g><path style="opacity:1" fill="#f2c9a0" d="M 327.5,243.5 C 330.152,243.41 332.485,244.076 334.5,245.5C 331.848,245.59 329.515,244.924 327.5,243.5 Z"/></g>
<g><path style="opacity:1" fill="#f8d5b1" d="M 378.5,243.5 C 376.485,244.924 374.152,245.59 371.5,245.5C 373.515,244.076 375.848,243.41 378.5,243.5 Z"/></g>
</svg>
